{"title":"The Brotherhood (2001) DVD RIP Gay Intrest","uid":9487659,"size":792602880,"categoryP":"video","categoryS":"movies","magnet":"?xt=urn:btih:34710b6893c0db85103b3f24fc989d780fe950f4&amp;dn=The+Brotherhood+%282001%29+DVD+RIP+Gay+Intrest&amp;tr=udp%3A%2F%2Ftracker.openbittorrent.com%3A80&amp;tr=udp%3A%2F%2Fopen.demonii.com%3A1337&amp;tr=udp%3A%2F%2Ftracker.coppersurfer.tk%3A6969&amp;tr=udp%3A%2F%2Fexodus.desync.com%3A6969","seeders":1,"leechers":2,"uploader":null,"files":-1,"time":1389933364,"description":" &lt;a href=&quot;http://www.imdb.com/title/Storyline&quot; rel=&quot;nofollow&quot; target=&quot;_NEW&quot;&gt;http://www.imdb.com/title/Storyline&lt;/a&gt;\n\nIn high school, Christopher 'Chris' Chandler was almost too good to be true: his gorgeous, perfectly trained body earned him a place in the Allstate swim-team and his scholarship for the small US college Drake, yet he never fell for pride or the temptation of parties and groupies, remaining modest and considerate. As a freshman, he takes his nerdy roomy Dan under his wing and even grants his request to go to a frat party -just the elitist arrogance Chris loads- where they got invited by Megan, a hip girl student Dan wouldn't dare to dream about. Alas the invitation was really arranged by Devon Eisley, the president of the somewhat Gothic fraternity &quot;Doma (House of) Tau Omega&quot;, who has found a key to eternal youth without having to become blood-drinking vampires and tricks Chris at the party into drinking each-others blood, after which he starts changing for the worse... Format                                   : MPEG-4\n\n\nFormat profile                           : Base Media / Version 2\nCodec ID                                 : mp42\nFile size                                : 756 MiB\nDuration                                 : 1h 21mn\nOverall bit rate mode                    : Variable\nOverall bit rate                         : 1 293 Kbps\nEncoded date                             : UTC 2013-11-08 02:38:29\nTagged date                              : UTC 2013-11-08 03:17:45\nWriting application                      : HandBrake 0.9.9 2013052900\n\nVideo\nID                                       : 1\nFormat                                   : AVC\nFormat/Info                              : Advanced Video Codec\nFormat profile                           : &lt;a class=&quot;__cf_email__&quot; href=&quot;/cdn-cgi/l/email-protection&quot; data-cfemail=&quot;cf87a6a8a78f83fae1fd&quot;&gt;[email&amp;#160;protected]&lt;/a&gt;&lt;script cf-hash='f9e31' type=&quot;text/javascript&quot;&gt;\n/* &lt;![CDATA[ */!function(){try{var t=&quot;currentScript&quot;in document?document.currentScript:function(){for(var t=document.getElementsByTagName(&quot;script&quot;),e=t.length;e--;)if(t[e].getAttribute(&quot;cf-hash&quot;))return t[e]}();if(t&amp;&amp;t.previousSibling){var e,r,n,i,c=t.previousSibling,a=c.getAttribute(&quot;data-cfemail&quot;);if(a){for(e=&quot;&quot;,r=parseInt(a.substr(0,2),16),n=2;a.length-n;n+=2)i=parseInt(a.substr(n,2),16)^r,e+=String.fromCharCode(i);e=document.createTextNode(e),c.parentNode.replaceChild(e,c)}}}catch(u){}}();/* ]]&gt; */&lt;/script&gt;\nFormat settings, CABAC                   : Yes\nFormat settings, ReFrames                : 4 frames\nCodec ID                                 : avc1\nCodec ID/Info                            : Advanced Video Coding\nDuration                                 : 1h 21mn\nBit rate                                 : 1 129 Kbps\nWidth                                    : 720 pixels\nHeight                                   : 576 pixels\nDisplay aspect ratio                     : 4:3\nOriginal display aspect ratio            : 4:3\nFrame rate mode                          : Variable\nFrame rate                               : 25.000 fps\nMinimum frame rate                       : 8.333 fps\nMaximum frame rate                       : 25.000 fps\nStandard                                 : PAL\nColor space                              : YUV\nChroma subsampling                       : 4:2:0\nBit depth                                : 8 bits\nScan type                                : Progressive\nBits/(Pixel*Frame)                       : 0.109\nStream size                              : 660 MiB (87%)\nWriting library                          : x264 core 130 r2273 b3065e6\nEncoding settings                        : cabac=1 / ref=2 / deblock=1:0:0 / \nEncoded date                             : UTC 2013-11-08 02:38:29\nTagged date                              : UTC 2013-11-08 03:17:45\nColor primaries                          : BT.601 PAL\nTransfer characteristics                 : BT.709\nMatrix coefficients                      : BT.601\n\nAudio\nID                                       : 2\nFormat                                   : AAC\nFormat/Info                              : Advanced Audio Codec\nFormat profile                           : LC\nCodec ID                                 : 40\nDuration                                 : 1h 21mn\nBit rate mode                            : Variable\nBit rate                                 : 160 Kbps\nMaximum bit rate                         : 190 Kbps\nChannel(s)                               : 2 channels\nChannel positions                        : Front: L R\nSampling rate                            : 48.0 KHz\nCompression mode                         : Lossy\nStream size                              : 93.5 MiB (12%)\nLanguage                                 : English\nEncoded date                             : UTC 2013-11-08 02:38:29\nTagged date                              : UTC 2013-11-08 03:17:44\n/","torrent":{"xt":"urn:btih:34710b6893c0db85103b3f24fc989d780fe950f4","amp;dn":"The+Brotherhood+%282001%29+DVD+RIP+Gay+Intrest","amp;tr":["udp%3A%2F%2Ftracker.openbittorrent.com%3A80","udp%3A%2F%2Fopen.demonii.com%3A1337","udp%3A%2F%2Ftracker.coppersurfer.tk%3A6969","udp%3A%2F%2Fexodus.desync.com%3A6969"],"infoHash":"34710b6893c0db85103b3f24fc989d780fe950f4","infoHashBuffer":{"type":"Buffer","data":[52,113,11,104,147,192,219,133,16,59,63,36,252,152,157,120,15,233,80,244]},"announce":[],"urlList":[]}}